<svg width="290" height="200" viewBox="0 0 290 200" fill="none" xmlns="http://www.w3.org/2000/svg">
<path d="M180.317 136.532C180.257 137.232 179.917 137.892 179.397 138.352C116.917 193.592 57.0474 194.202 16.5474 184.112C8.28735 182.052 -2.28265 177.372 -12.2726 172.322C-27.0026 164.872 -41.0927 156.222 -54.5126 146.602C-103.923 111.192 -238.943 32.3522 -369.703 115.372C-520.893 211.362 -622.973 177.852 -638.023 172.022C-639.173 171.572 -639.873 170.422 -639.763 169.202L-633.283 99.2222C-633.113 97.4122 -631.283 96.2622 -629.583 96.8922C-610.333 103.922 -509.743 133.072 -362.693 39.7022C-231.933 -43.3178 -96.9126 35.5322 -47.5026 70.9322C-34.0826 80.5522 -19.9926 89.2022 -5.26263 96.6522C4.72736 101.702 15.2974 106.382 23.5574 108.442C63.1174 118.292 121.157 117.942 182.057 66.4422C183.947 64.8422 186.827 66.3222 186.597 68.7922L180.327 136.542L180.317 136.532Z" fill="white" stroke="black" stroke-width="5.48" stroke-miterlimit="10"/>
<path d="M171.227 143.562C171.057 147.932 174.457 151.582 178.797 151.752L276.817 155.602C281.187 155.772 284.838 152.372 285.008 148.032L289.367 36.772C289.497 33.582 287.017 30.902 283.817 30.772C260.127 29.842 238.998 42.132 227.508 61.052L182.427 59.282C178.057 59.112 174.407 62.512 174.237 66.852L171.227 143.572H171.208L171.227 143.562Z" fill="black"/>
</svg>
