<svg width="273" height="200" viewBox="0 0 273 200" fill="none" xmlns="http://www.w3.org/2000/svg">
<path d="M935.317 136.532C935.257 137.232 934.917 137.892 934.397 138.352C871.917 193.592 812.047 194.202 771.547 184.112C763.287 182.052 752.717 177.372 742.727 172.322C727.997 164.872 713.907 156.222 700.487 146.602C651.077 111.192 516.057 32.3522 385.297 115.372C234.107 211.362 132.027 177.852 116.977 172.022C115.827 171.572 115.127 170.422 115.237 169.202L121.717 99.2222C121.887 97.4122 123.717 96.2622 125.417 96.8922C144.667 103.922 245.257 133.072 392.307 39.7022C523.067 -43.3178 658.087 35.5322 707.497 70.9322C720.917 80.5522 735.007 89.2022 749.737 96.6522C759.727 101.702 770.297 106.382 778.557 108.442C818.117 118.292 876.157 117.942 937.057 66.4422C938.947 64.8422 941.827 66.3222 941.597 68.7922L935.327 136.542L935.317 136.532Z" fill="white" stroke="black" stroke-width="5.48" stroke-miterlimit="10"/>
<path d="M125.677 95.152C126.167 90.812 123.047 86.912 118.717 86.432L21.2374 75.432C16.8974 74.942 12.9974 78.062 12.5174 82.392L0.0373926 193.042C-0.322607 196.222 1.95739 199.072 5.12739 199.432C28.6774 202.092 50.6574 191.382 63.4974 173.352L108.327 178.412C112.667 178.902 116.567 175.782 117.047 171.452L125.657 95.152H125.677Z" fill="black"/>
</svg>
