<svg width="1511" height="982" viewBox="0 0 1511 982" fill="none" xmlns="http://www.w3.org/2000/svg">
<path fill-rule="evenodd" clip-rule="evenodd" d="M569.87 0L662.168 379.694L0 271.477V277.643L566.856 664.81L188.364 976.074L677.232 944.028L663.015 982H1511V912.699L1423.36 790.623L1511 766.399V515.178L1415.42 490.317L1511 358.974V81.5824L1216.06 265.864L1171.93 0H1028.63L918.572 222.184L658.451 0H569.87Z" fill="#0075FF"/>
<path fill-rule="evenodd" clip-rule="evenodd" d="M0 982H997.732V334.097H820.841L464.732 68.9062L108.991 334.097H0V982Z" fill="#FFED2A"/>
<path fill-rule="evenodd" clip-rule="evenodd" d="M103.389 982C169.312 663.319 435.663 424.906 754.232 424.906C1072.8 424.906 1339.15 663.319 1405.08 982H103.389Z" fill="#AADC80"/>
</svg>
