<svg width="202" height="401" viewBox="0 0 202 401" fill="none" xmlns="http://www.w3.org/2000/svg">
<path d="M114.41 258.953C58.0357 258.953 37.6582 267.917 37.6582 324.202H73.0681C73.1782 300.218 86.5593 288.225 113.212 288.225C139.864 288.225 151.276 300.218 151.239 324.202H190.098C190.098 267.917 170.773 258.953 114.41 258.953Z" fill="white" stroke="black" stroke-width="2.15" stroke-miterlimit="10"/>
<path d="M80.23 324.215H28.1C25.146 324.215 22.7436 326.589 22.7436 329.536V359.96C9.60383 367.204 0.705078 381.119 0.705078 397.105C0.705078 399.26 2.45786 401.001 4.62739 401.001H80.23C83.184 401.001 85.5864 398.626 85.5864 395.68V329.523C85.5864 326.589 83.1962 324.203 80.23 324.203V324.215Z" fill="black"/>
<path d="M196.292 324.215H144.162C141.208 324.215 138.806 326.589 138.806 329.536V359.96C125.666 367.204 116.768 381.119 116.768 397.105C116.768 399.26 118.52 401.001 120.69 401.001H196.292C199.246 401.001 201.649 398.626 201.649 395.68V329.523C201.649 326.589 199.259 324.203 196.292 324.203V324.215Z" fill="black"/>
<path d="M186.12 269.923C184.931 269.96 183.816 269.325 183.289 268.274C173.437 248.671 152.262 244.653 114.423 244.653C76.571 244.653 54.9063 248.683 44.748 268.287C44.2456 269.252 43.2408 269.85 42.1502 269.887H41.8683C40.3121 269.948 38.9519 268.848 38.7191 267.322C35.815 248.525 36.6482 210.173 70.8362 155.504C70.873 155.443 87.9057 126.398 73.1032 99.8209C73.0541 99.7476 73.0174 99.6743 72.9684 99.601C71.9145 98.0132 58.5947 77.4451 59.3667 56.5838C59.3667 26.44 83.8865 2 114.129 2H113.626C143.869 2 168.388 26.44 168.388 56.5838C169.16 77.4451 155.84 98.001 154.787 99.601C154.738 99.6743 154.701 99.7476 154.652 99.8209C139.849 126.398 156.882 155.431 156.919 155.504C191.119 210.185 191.94 248.549 189.036 267.346C188.815 268.8 187.578 269.874 186.107 269.923H186.12Z" fill="#602763" stroke="black" stroke-width="2.15" stroke-miterlimit="10"/>
</svg>
