<svg width="50" height="50" viewBox="0 0 50 50" fill="none" xmlns="http://www.w3.org/2000/svg">
<path d="M41.3467 11.655C41.3467 9.99323 39.9999 8.65146 38.3444 8.65146C36.6888 8.65146 35.3408 9.99323 35.3408 11.655C35.3408 13.3106 36.6888 14.6523 38.3444 14.6523C39.9999 14.6523 41.3467 13.3106 41.3467 11.655Z" fill="url(#paint0_linear_668_1132)"/>
<path d="M45.347 35.1009C45.2358 37.5386 44.8281 38.8631 44.4896 39.7427C44.0349 40.9091 43.4925 41.743 42.6129 42.6178C41.743 43.4925 40.9091 44.0337 39.7427 44.4834C38.8631 44.8269 37.5336 45.2358 35.096 45.352C32.4607 45.4681 31.6798 45.4928 24.9969 45.4928C18.3202 45.4928 17.5331 45.4681 14.8978 45.352C12.4602 45.2358 11.1369 44.8269 10.2572 44.4834C9.08472 44.0337 8.25696 43.4925 7.38222 42.6178C6.50127 41.743 5.95891 40.9091 5.51042 39.7427C5.17182 38.8631 4.75799 37.5386 4.65291 35.1009C4.52448 32.4656 4.50094 31.6724 4.50094 25.0031C4.50094 18.3202 4.52448 17.5331 4.65291 14.8978C4.75799 12.4602 5.17182 11.1369 5.51042 10.2498C5.95891 9.08473 6.50127 8.25567 7.38222 7.38092C8.25696 6.50748 9.08472 5.96503 10.2572 5.51042C11.1369 5.16571 12.4602 4.76291 14.8978 4.6468C17.5331 4.5306 18.3202 4.50094 24.9969 4.50094C31.6798 4.50094 32.4607 4.5306 35.096 4.6468C37.5336 4.76291 38.8631 5.16571 39.7427 5.51042C40.9091 5.96503 41.743 6.50748 42.6129 7.38092C43.4925 8.25567 44.0349 9.08473 44.4896 10.2498C44.8281 11.1369 45.2358 12.4602 45.347 14.8978C45.4693 17.5331 45.499 18.3202 45.499 25.0031C45.499 31.6724 45.4693 32.4656 45.347 35.1009ZM49.848 14.6927C49.7257 12.0289 49.3056 10.209 48.6817 8.62391C48.0466 6.97941 47.1954 5.58576 45.8017 4.1921C44.4142 2.80465 43.0206 1.95335 41.3761 1.31092C39.7848 0.693127 37.971 0.268078 35.306 0.151974C32.641 0.0234489 31.7898 0 24.9969 0C18.2102 0 17.3528 0.0234489 14.6878 0.151974C12.0289 0.268078 10.2164 0.693127 8.6177 1.31092C6.97941 1.95335 5.58575 2.80465 4.1983 4.1921C2.80464 5.58576 1.95335 6.97941 1.31211 8.62391C0.694327 10.209 0.274284 12.0289 0.14576 14.6927C0.0296523 17.3577 0 18.2102 0 25.0031C0 31.7898 0.0296523 32.641 0.14576 35.306C0.274284 37.9649 0.694327 39.7835 1.31211 41.3761C1.95335 43.0144 2.80464 44.4142 4.1983 45.8017C5.58575 47.1891 6.97941 48.0467 8.6177 48.6879C10.2164 49.3056 12.0289 49.7257 14.6878 49.848C17.3528 49.9703 18.2102 50 24.9969 50C31.7898 50 32.641 49.9703 35.306 49.848C37.971 49.7257 39.7848 49.3056 41.3761 48.6879C43.0206 48.0467 44.4142 47.1891 45.8017 45.8017C47.1954 44.4142 48.0466 43.0144 48.6817 41.3761C49.3056 39.7835 49.7257 37.9649 49.848 35.306C49.9703 32.641 50 31.7898 50 25.0031C50 18.2102 49.9703 17.3577 49.848 14.6927Z" fill="url(#paint1_linear_668_1132)"/>
<path d="M24.9963 33.3288C20.3965 33.3288 16.664 29.6024 16.664 25.0026C16.664 20.3954 20.3965 16.6642 24.9963 16.6642C29.5974 16.6642 33.3348 20.3954 33.3348 25.0026C33.3348 29.6024 29.5974 33.3288 24.9963 33.3288ZM24.9963 12.157C17.9057 12.157 12.1631 17.912 12.1631 25.0026C12.1631 32.0871 17.9057 37.8359 24.9963 37.8359C32.0869 37.8359 37.8358 32.0871 37.8358 25.0026C37.8358 17.912 32.0869 12.157 24.9963 12.157Z" fill="url(#paint2_linear_668_1132)"/>
<defs>
<linearGradient id="paint0_linear_668_1132" x1="0.451245" y1="49.4821" x2="45.8358" y2="4.09781" gradientUnits="userSpaceOnUse">
<stop stop-color="#FFD521"/>
<stop offset="0.05" stop-color="#FFD521"/>
<stop offset="0.501119" stop-color="#F50000"/>
<stop offset="0.95" stop-color="#B900B4"/>
<stop offset="0.950079" stop-color="#B900B4"/>
<stop offset="1" stop-color="#B900B4"/>
</linearGradient>
<linearGradient id="paint1_linear_668_1132" x1="0.450993" y1="49.5453" x2="45.8728" y2="4.12354" gradientUnits="userSpaceOnUse">
<stop stop-color="#FFD521"/>
<stop offset="0.05" stop-color="#FFD521"/>
<stop offset="0.501119" stop-color="#F50000"/>
<stop offset="0.95" stop-color="#B900B4"/>
<stop offset="0.950079" stop-color="#B900B4"/>
<stop offset="1" stop-color="#B900B4"/>
</linearGradient>
<linearGradient id="paint2_linear_668_1132" x1="0.462201" y1="49.5461" x2="45.873" y2="4.13525" gradientUnits="userSpaceOnUse">
<stop stop-color="#FFD521"/>
<stop offset="0.05" stop-color="#FFD521"/>
<stop offset="0.501119" stop-color="#F50000"/>
<stop offset="0.95" stop-color="#B900B4"/>
<stop offset="0.950079" stop-color="#B900B4"/>
<stop offset="1" stop-color="#B900B4"/>
</linearGradient>
</defs>
</svg>
