<svg width="67" height="67" viewBox="0 0 67 67" fill="none" xmlns="http://www.w3.org/2000/svg">
<path d="M19.5148 38.2204L17.7071 44.5879L11.446 44.6271C9.62708 41.1298 8.62517 37.1444 8.68799 32.9261C8.74873 28.847 9.79804 25.0151 11.6069 21.6542L11.6083 21.6543L17.1655 22.7589L19.524 28.3342C18.991 29.8161 18.6887 31.4109 18.6639 33.0746C18.6372 34.8804 18.9385 36.6153 19.5148 38.2204Z" fill="#FBBB00"/>
<path d="M57.5258 29.0511C57.7861 30.5433 57.9105 32.0823 57.8872 33.6529C57.8609 35.414 57.6502 37.1291 57.2728 38.7809C55.9913 44.4019 52.7891 49.2791 48.4027 52.699L48.4013 52.6976L41.3879 52.235L40.4869 46.0191C43.3881 44.3751 45.6752 41.7689 46.9062 38.6266L33.7526 38.4307L33.8975 28.6992L47.2431 28.8979L57.5258 29.0511Z" fill="#518EF8"/>
<path d="M48.3987 52.7052L48.4001 52.7066C44.1341 56.0322 38.7488 57.9798 32.9194 57.893C23.5516 57.7535 15.4849 52.3962 11.4448 44.629L19.5137 38.2222C21.5085 43.7973 26.798 47.8237 33.068 47.917C35.763 47.9571 38.2987 47.2662 40.4842 46.0266L48.3987 52.7052Z" fill="#28B446"/>
<path d="M49.2693 14.5797L41.2031 20.9851C38.9817 19.5502 36.3433 18.7011 33.5036 18.6588C27.0917 18.5633 21.5819 22.6099 19.5231 28.3235L11.6072 21.6436L11.6059 21.6435C15.8174 13.8112 24.1451 8.54119 33.6522 8.68276C39.6208 8.77164 45.0617 10.9792 49.2693 14.5797Z" fill="#F14336"/>
</svg>
