<svg width="451" height="879" viewBox="0 0 451 879" fill="none" xmlns="http://www.w3.org/2000/svg">
<path d="M296.35 455.213C296.35 455.213 278.841 392.525 286.14 334.109C293.437 275.685 291.451 218.234 231.376 169.548C171.31 120.858 115.617 146.122 95.6742 179.726C75.7275 213.321 60.9625 243.839 67.4462 300.081C73.9263 356.315 130.488 493.208 159.807 536.395C189.129 579.592 197.023 635.748 153.532 642.985C110.04 650.221 90.9459 595.893 84.9666 564.344C79.7734 536.945 27.155 298.228 13.3569 235.744C11.1631 225.815 8.62646 215.963 5.74178 206.202L-39.275 53.8565C-68.2365 -24.8233 -163.547 -56.5472 -232.905 -9.44729C-233.826 -8.82288 -234.748 -8.17698 -235.679 -7.52746C-324.296 55.381 -251.526 212.691 -251.526 212.691C-251.526 212.691 -179.808 361.552 -165.735 397.809C-163.722 403.008 -161.553 408.155 -159.262 413.241C-152.945 427.322 -143.815 454.864 -166.574 459.3C-174.229 460.797 -182.147 458.689 -188.299 453.897C-204.026 441.652 -241.846 424.3 -263.911 388.481L-310.16 431.823C-310.16 431.823 -239.384 572.117 -125.141 555.48C-125.141 555.48 -18.7386 521.558 -69.5369 382.046L-135.135 234.02C-141.159 220.432 -147.653 207.068 -154.507 193.891C-169.892 164.313 -199.47 95.6562 -158.55 69.5486C-158.55 69.5486 -121.121 42.8355 -97.9254 123.542C-74.7296 204.248 -38.0067 356.624 -18.6448 483.99C0.717077 611.355 31.1079 705.182 118.568 726.309C118.568 726.309 233.521 739.386 258.495 627.301C258.495 627.301 275.721 585.343 204.495 449.048C197.83 436.283 191.69 423.253 186.18 409.955L177.202 388.298C162.658 353.23 153.747 316.066 150.993 278.193C150.789 275.396 150.678 273.362 150.679 272.394C150.707 259.294 154.061 240.068 173.277 238.748C183.379 238.054 192.96 243.123 198.823 251.39C206.335 261.97 215.145 281.097 212.669 310.955C212.669 310.955 205.984 417.253 258.674 491.528L296.362 455.218L296.35 455.213Z" fill="white" stroke="black" stroke-width="5.42" stroke-miterlimit="10"/>
<path d="M249.12 494.411C246.088 497.33 246.016 502.131 248.919 505.149L314.463 573.158C317.383 576.19 322.184 576.262 325.201 573.359L402.395 498.969C404.611 496.829 404.678 493.319 402.538 491.103C386.706 474.67 363.831 469.122 343.233 474.601L313.092 443.33C310.173 440.298 305.372 440.226 302.354 443.129L249.127 494.429L249.12 494.411Z" fill="black"/>
</svg>
