<svg width="508" height="754" viewBox="0 0 508 754" fill="none" xmlns="http://www.w3.org/2000/svg">
<path d="M823.35 618.213C823.35 618.213 805.84 555.525 813.14 497.109C820.436 438.685 818.451 381.234 758.376 332.548C698.31 283.858 642.617 309.122 622.674 342.726C602.727 376.321 587.962 406.839 594.446 463.081C600.926 519.315 657.488 656.208 686.807 699.395C716.129 742.592 724.023 798.748 680.532 805.985C637.04 813.221 617.946 758.893 611.966 727.344C606.773 699.945 554.155 461.228 540.357 398.744C538.163 388.815 535.626 378.963 532.742 369.202L487.725 216.856C458.763 138.177 363.452 106.453 294.095 153.553C293.174 154.177 292.252 154.823 291.321 155.473C202.704 218.381 275.474 375.691 275.474 375.691C275.474 375.691 347.192 524.552 361.264 560.809C363.278 566.008 365.447 571.155 367.737 576.241C374.055 590.322 383.185 617.864 360.426 622.3C352.771 623.797 344.853 621.689 338.701 616.897C322.974 604.652 285.154 587.3 263.089 551.481L216.84 594.823C216.84 594.823 287.616 735.117 401.859 718.48C401.859 718.48 508.261 684.558 457.463 545.046L391.864 397.02C385.841 383.432 379.347 370.068 372.493 356.891C357.108 327.313 327.53 258.656 368.449 232.549C368.449 232.549 405.879 205.836 429.075 286.542C452.27 367.248 488.993 519.624 508.355 646.99C527.717 774.355 558.108 868.182 645.567 889.309C645.567 889.309 760.521 902.386 785.495 790.301C785.495 790.301 802.721 748.343 731.495 612.048C724.83 599.283 718.69 586.253 713.18 572.955L704.202 551.298C689.658 516.23 680.747 479.066 677.992 441.193C677.789 438.396 677.678 436.362 677.679 435.394C677.707 422.294 681.061 403.068 700.276 401.748C710.379 401.054 719.96 406.123 725.823 414.39C733.335 424.97 742.144 444.097 739.669 473.955C739.669 473.955 732.984 580.253 785.674 654.528L823.362 618.218L823.35 618.213Z" fill="white" stroke="black" stroke-width="5.42" stroke-miterlimit="10"/>
<path d="M269.421 550.69C272.452 547.771 272.524 542.97 269.621 539.953L204.077 471.943C201.158 468.911 196.357 468.84 193.339 471.743L116.146 546.132C113.93 548.272 113.862 551.782 116.002 553.998C131.834 570.431 154.709 575.98 175.307 570.5L205.448 601.772C208.367 604.803 213.168 604.875 216.186 601.972L269.413 550.672L269.421 550.69Z" fill="black"/>
</svg>
