<svg width="1513" height="2081" viewBox="0 0 1513 2081" fill="none" xmlns="http://www.w3.org/2000/svg">
<path d="M1261.1 610.251L756 237L251.421 610.251H0V2081H1512V610.251H1261.1Z" fill="#FFED2A"/>
<path fill-rule="evenodd" clip-rule="evenodd" d="M1509.12 4C1464.73 13.9059 1431.33 35.4237 1407.5 57.091C1398.87 64.9447 1389.13 77.4807 1380.33 90.0912C1367.36 108.69 1355.93 128.334 1345.93 148.723C1309.1 223.783 1177.85 405.624 967 389.317C980.276 399.336 990.997 407.401 1000.3 414.397C1030.91 437.425 1046.12 448.87 1086.4 480.317C1288.54 457.317 1366.09 311.266 1402.93 236.218C1412.93 215.828 1424.36 196.184 1437.33 177.586C1446.13 164.975 1455.86 152.439 1464.5 144.585C1476.77 133.429 1491.58 122.312 1509.12 112.799V4Z" fill="white"/>
<path d="M1509.12 4H1512.12V0.256792L1508.47 1.07201L1509.12 4ZM1407.5 57.091L1405.48 54.8714L1405.48 54.8719L1407.5 57.091ZM1380.33 90.0912L1377.87 88.3745L1377.87 88.375L1380.33 90.0912ZM1345.93 148.723L1348.62 150.045L1348.62 150.044L1345.93 148.723ZM967 389.317L967.231 386.326L957.009 385.535L965.193 391.712L967 389.317ZM1000.3 414.397L1002.1 412L1002.1 412L1000.3 414.397ZM1086.4 480.317L1084.55 482.681L1085.52 483.436L1086.74 483.297L1086.4 480.317ZM1402.93 236.218L1405.62 237.54L1405.62 237.539L1402.93 236.218ZM1437.33 177.586L1434.87 175.869L1434.87 175.87L1437.33 177.586ZM1464.5 144.585L1462.48 142.366L1462.48 142.366L1464.5 144.585ZM1509.12 112.799L1510.55 115.436L1512.12 114.585V112.799H1509.12ZM1508.47 1.07201C1463.47 11.1138 1429.61 32.9296 1405.48 54.8714L1409.52 59.3105C1433.05 37.9178 1465.99 16.698 1509.77 6.92799L1508.47 1.07201ZM1405.48 54.8719C1396.59 62.9649 1386.69 75.7356 1377.87 88.3745L1382.79 91.808C1391.57 79.2259 1401.15 66.9246 1409.52 59.3101L1405.48 54.8719ZM1377.87 88.375C1364.81 107.108 1353.3 126.885 1343.24 147.402L1348.62 150.044C1358.56 129.782 1369.92 110.271 1382.79 91.8074L1377.87 88.375ZM1343.24 147.402C1324.98 184.619 1283.2 248.483 1219.81 300.972C1156.45 353.429 1071.67 394.404 967.231 386.326L966.769 392.308C1073.17 400.538 1159.44 358.745 1223.64 305.593C1287.79 252.473 1330.06 187.887 1348.62 150.045L1343.24 147.402ZM965.193 391.712C978.471 401.733 989.193 409.799 998.493 416.794L1002.1 412C992.8 405.004 982.081 396.94 968.807 386.923L965.193 391.712ZM998.493 416.794C1029.1 439.817 1044.29 451.25 1084.55 482.681L1088.25 477.952C1047.95 446.491 1032.72 435.034 1002.1 412L998.493 416.794ZM1086.74 483.297C1290.53 460.11 1368.72 312.724 1405.62 237.54L1400.23 234.896C1363.47 309.807 1286.54 454.524 1086.06 477.336L1086.74 483.297ZM1405.62 237.539C1415.56 217.276 1426.91 197.766 1439.79 179.302L1434.87 175.87C1421.8 194.603 1410.3 214.38 1400.23 234.897L1405.62 237.539ZM1439.79 179.303C1448.57 166.72 1458.15 154.419 1466.52 146.805L1462.48 142.366C1453.58 150.459 1443.69 163.23 1434.87 175.869L1439.79 179.303ZM1466.52 146.805C1478.63 135.789 1493.25 124.82 1510.55 115.436L1507.69 110.162C1489.91 119.805 1474.91 131.069 1462.48 142.366L1466.52 146.805ZM1512.12 112.799V4H1506.12V112.799H1512.12Z" fill="black"/>
</svg>
