<svg width="1512" height="4215" viewBox="0 0 1512 4215" fill="none" xmlns="http://www.w3.org/2000/svg">
<path d="M1211.5 0C925.13 0 693 247.144 693 552H1730C1730 247.144 1497.87 0 1211.5 0Z" fill="#AADC80"/>
<rect y="551" width="1512" height="1368" fill="#AADC80"/>
<path d="M1261.1 1813.25L756 1440L251.421 1813.25H0V3284H1512V1813.25H1261.1Z" fill="#FFED2A"/>
<path d="M863.986 3313.64L579.403 3312.13L708.774 3736L430.923 3403.77L305.841 3658.2L257.958 3379.02L-108.982 3555.92L141.454 3249.4L-132 3171L135.97 3075.58L-22.9336 2840.6L244.006 2938.89L226.253 2486L415.016 2903.28L652.042 2662.52L569.034 2985.46L911 2950.34L633.963 3146.9L863.986 3313.64Z" fill="#0075FF"/>
<rect y="3148" width="1512" height="1067" fill="#0075FF"/>
</svg>
