<svg width="737" height="243" viewBox="0 0 737 243" fill="none" xmlns="http://www.w3.org/2000/svg">
<path d="M604.071 165.815C603.998 166.669 603.584 167.473 602.95 168.034C526.792 235.388 453.816 236.132 404.45 223.829C394.382 221.317 381.498 215.611 369.321 209.454C351.366 200.37 334.192 189.823 317.834 178.093C257.607 134.918 93.0296 38.789 -66.3556 140.015C-250.643 257.055 -375.07 216.196 -393.415 209.088C-394.816 208.539 -395.67 207.137 -395.536 205.649L-387.637 120.323C-387.43 118.116 -385.199 116.714 -383.127 117.482C-359.663 126.054 -237.052 161.596 -57.811 47.7508C101.574 -53.475 266.152 42.6663 326.378 85.8293C342.736 97.559 359.911 108.106 377.865 117.19C390.042 123.347 402.926 129.053 412.995 131.565C461.215 143.575 531.961 143.148 606.192 80.3547C608.496 78.4039 612.007 80.2084 611.726 83.22L604.084 165.827L604.071 165.815Z" fill="white" stroke="black" stroke-width="5.48" stroke-miterlimit="10"/>
<path d="M592.992 174.387C592.784 179.715 596.929 184.165 602.219 184.373L721.697 189.067C727.023 189.274 731.473 185.129 731.68 179.837L736.994 44.1782C737.153 40.2886 734.13 37.0209 730.229 36.8624C701.353 35.7285 675.597 50.7136 661.592 73.7827L606.643 71.6245C601.317 71.4172 596.868 75.5628 596.661 80.8546L592.992 174.399H592.967L592.992 174.387Z" fill="black"/>
</svg>
