<svg width="63" height="63" viewBox="0 0 63 63" fill="none" xmlns="http://www.w3.org/2000/svg">
<circle cx="31.5" cy="31.5" r="30" fill="white" stroke="black" stroke-width="3"/>
<path d="M44.1472 53.9856C43.5976 53.9959 43.1295 53.5919 43.073 53.0566C42.63 48.9569 40.674 47.0742 35.2135 46.8589C29.615 46.6394 24.2005 49.2318 20.7336 53.6719C20.5726 53.877 20.3281 54 20.0627 54C19.5863 54 19.1871 53.6534 19.1286 53.1899C18.7044 49.9167 19.0429 43.6185 24.6581 34.7752C24.6644 34.765 27.5775 29.8737 25.0343 25.4048C25.0343 25.4048 22.5663 21.8138 22.7042 18.1653C22.7042 13.1038 26.8858 9 32.0433 9H31.9576C37.1152 9 41.2968 13.1038 41.2968 18.1653C41.4347 21.8117 38.9667 25.4048 38.9667 25.4048C36.4234 29.8716 39.3345 34.7629 39.3428 34.7752C45.0688 43.7908 45.307 50.1628 44.8452 53.3786C44.795 53.7211 44.5003 53.9754 44.1472 53.9815V53.9856Z" fill="black" stroke="black" stroke-width="2.15" stroke-miterlimit="10"/>
</svg>
