<svg width="179" height="97" viewBox="0 0 179 97" fill="none" xmlns="http://www.w3.org/2000/svg">
<path d="M85.009 51.2051H69.6338L70.5622 11.356H90.5797L92.7708 24.7628H93.2165L95.4076 11.356H115.276L116.205 51.2051H100.83V30.4821H100.384L97.116 51.2051H88.7228L85.4546 29.9621H85.009V51.2051Z" fill="white" stroke="#1D1D1B" stroke-width="1.9" stroke-miterlimit="10"/>
<path d="M134.886 51.2794H118.582V11.356H134.886V51.2794Z" fill="white" stroke="#1D1D1B" stroke-width="1.9" stroke-miterlimit="10"/>
<path d="M157.205 23.2773L159.285 11.356H177L170.464 29.5165L177 51.2051H159.768L157.243 35.7185H156.797L154.197 51.2051H136.482L143.464 29.5165L136.928 11.356H154.16L156.76 23.2773H157.205Z" fill="white" stroke="#1D1D1B" stroke-width="1.9" stroke-miterlimit="10"/>
<path d="M67.2199 94.4336H50.4335L49.9136 89.6799H42.5602L42.0403 94.4336H25.2539L35.504 54.5845H56.9327L67.2199 94.4336ZM44.8999 69.3283L44.3429 74.3048H48.2795L47.7224 69.3283H44.9371H44.8999Z" fill="white" stroke="#1D1D1B" stroke-width="1.9" stroke-miterlimit="10"/>
<path d="M85.009 94.4336H69.6338L70.5622 54.5845H90.5797L92.7708 67.9913H93.2165L95.4076 54.5845H115.276L116.205 94.4336H100.83V73.7106H100.384L97.116 94.4336H88.7228L85.4546 73.2278H85.009V94.4336Z" fill="white" stroke="#1D1D1B" stroke-width="1.9" stroke-miterlimit="10"/>
<path d="M134.923 94.4708H118.619V54.5474H134.923V94.4708Z" fill="white" stroke="#1D1D1B" stroke-width="1.9" stroke-miterlimit="10"/>
<path d="M172.283 72.2622C170.463 71.1481 168.495 70.3311 166.415 69.8111C164.335 69.2912 161.847 68.9198 158.95 68.697C158.728 68.697 158.468 68.6227 158.245 68.6227C158.022 68.6227 157.799 68.6227 157.613 68.6227C156.871 68.6227 156.536 68.9198 156.536 69.514C156.536 70.1082 156.722 70.1082 157.131 70.2197C157.539 70.3311 158.059 70.4425 158.765 70.5168C160.102 70.7024 161.513 70.8881 162.999 71.111C164.484 71.3338 165.932 71.668 167.344 72.1137C168.755 72.5594 170.055 73.2278 171.206 74.082C172.357 74.9362 173.286 76.0875 173.954 77.4987C174.623 78.91 174.957 80.6926 174.957 82.8466C174.957 85.0006 174.4 87.2289 173.286 88.8258C172.172 90.4228 170.686 91.7226 168.792 92.651C166.898 93.6166 164.781 94.2851 162.367 94.6936C159.953 95.1022 157.502 95.325 154.94 95.325C151.969 95.325 149.035 95.1764 146.101 94.8422C143.167 94.5079 140.604 94.0252 138.376 93.4681L139.824 75.2333C140.604 75.8275 141.57 76.4589 142.684 77.1273C143.798 77.7958 145.284 78.4272 147.178 78.9471C149.072 79.5042 151.597 79.9127 154.68 80.2469C154.865 80.2469 155.014 80.2841 155.162 80.2841H155.608C155.979 80.2841 156.277 80.2469 156.462 80.1355C156.648 80.0241 156.759 79.8013 156.759 79.467C156.759 79.1328 156.611 78.8357 156.277 78.7614C155.942 78.6871 155.459 78.5386 154.754 78.4643C152.897 78.2415 151.04 77.9444 149.183 77.573C147.326 77.2016 145.655 76.6074 144.132 75.8275C142.61 75.0476 141.384 73.9335 140.493 72.5222C139.602 71.111 139.119 69.2541 139.119 66.9886C139.119 63.7576 139.899 61.158 141.421 59.2639C142.944 57.3327 145.024 55.9586 147.66 55.1416C150.297 54.3246 153.231 53.8789 156.462 53.8789C159.693 53.8789 162.033 54.1389 165.004 54.6217C167.975 55.1416 170.909 55.8101 173.806 56.6643L172.246 72.4108L172.283 72.2622Z" fill="white" stroke="#1D1D1B" stroke-width="1.9" stroke-miterlimit="10"/>
<path d="M3.15679 74.3049H13.7783C13.7783 64.2405 10.9186 15.2182 21.8001 10.1675C30.9361 5.93372 37.6952 21.1603 37.6952 31.2247H47.3882C47.3882 15.8124 32.0502 -3.90786 17.8263 2.1085C1.81982 8.86763 3.15679 58.8926 3.15679 74.3049Z" fill="white" stroke="black" stroke-width="1.9" stroke-miterlimit="10"/>
<path d="M35.8014 30.2964C34.9844 30.2964 34.353 30.9649 34.353 31.7448V49.9424C34.353 50.7595 35.0215 51.3908 35.8014 51.3908H56.4502C57.0444 51.3908 57.5272 50.908 57.5272 50.3138C57.5272 45.9315 55.1132 42.1063 51.5108 40.1008V31.7448C51.5108 30.9277 50.8423 30.2964 50.0624 30.2964H35.8385H35.8014Z" fill="black"/>
<path d="M1.44838 73.7476C0.631346 73.7476 0 74.416 0 75.1959V93.3936C0 94.2106 0.668484 94.842 1.44838 94.842H22.0971C22.6914 94.842 23.1742 94.3592 23.1742 93.765C23.1742 89.3827 20.7602 85.5575 17.1578 83.552V75.1959C17.1578 74.3789 16.4893 73.7476 15.7094 73.7476H1.44838Z" fill="black"/>
</svg>
