<svg width="1960" height="4957" viewBox="0 0 1960 4957" fill="none" xmlns="http://www.w3.org/2000/svg">
<rect y="1293" width="1960" height="1368" fill="#AADC80"/>
<path d="M1634.76 2555.25L980 2182L325.917 2555.25H0V4026H1960V2555.25H1634.76Z" fill="#FFED2A"/>
<rect y="3890" width="1960" height="1067" fill="#0075FF"/>
<path fill-rule="evenodd" clip-rule="evenodd" d="M1960 844.102C1850.11 779.813 1715.67 742 1570.46 742C1199.24 742 898.334 989.144 898.334 1294H1960V844.102Z" fill="#AADC80"/>
<path fill-rule="evenodd" clip-rule="evenodd" d="M0 4245.38L334.39 4121.02L396.46 4400.2L558.603 4145.77L918.78 4478L751.077 4054.13L1119.98 4055.64L821.804 3888.9L1180.93 3692.34L737.636 3727.46L845.239 3404.52L537.983 3645.28L293.291 3228L316.304 3680.89L0 3591.05V3616.52L176.258 3817.58L0 3866V3950.85L183.366 3991.4L0 4164.53V4245.38Z" fill="#0075FF"/>
<path fill-rule="evenodd" clip-rule="evenodd" d="M0 633.824L101.715 472.644L505.749 849L317.626 368.839L731.449 370.553L396.964 181.671L725.644 0H0V633.824Z" fill="#0075FF"/>
<path fill-rule="evenodd" clip-rule="evenodd" d="M1342.48 0L1416.03 62.5638L1457.92 368.485L1848.3 430.223L1955.94 521.775L1960 518.933V0H1342.48Z" fill="#FFED2A"/>
</svg>
