<svg width="1517" height="3708" viewBox="0 0 1517 3708" fill="none" xmlns="http://www.w3.org/2000/svg">
<path d="M1265.44 2697.3L759 2327L253.087 2697.3H1V3708H1517V2697.3H1265.44Z" fill="#FFED2A"/>
<path fill-rule="evenodd" clip-rule="evenodd" d="M1517 1275.78L1258.13 1540.42L1028.26 1029L1049.88 1584.06L739 1476.5L918.323 1751.59L592 1868.54L925 1964.62L620.031 2340.29L1066.87 2123.48L1125.18 2465.64L1277.5 2153.81L1517 2442.03V2235.02L1458.32 2041.5L1517 2041.82V1633.77L1445.69 1641.14L1517 1361.91V1275.78Z" fill="#0075FF"/>
<path fill-rule="evenodd" clip-rule="evenodd" d="M0 286.683C110.432 619.005 407.431 857 756.5 857C1109.87 857 1409.89 613.099 1517 274.346V0H0V286.683Z" fill="#AADC80"/>
</svg>
