<svg width="1792" height="3708" viewBox="0 0 1792 3708" fill="none" xmlns="http://www.w3.org/2000/svg">
<path d="M1494.83 2697.3L896.591 2327L298.966 2697.3H1.18164V3708H1792V2697.3H1494.83Z" fill="#FFED2A"/>
<path fill-rule="evenodd" clip-rule="evenodd" d="M1792 1275.78L1486.2 1540.42L1214.67 1029L1240.2 1584.06L872.964 1476.5L1084.79 1751.59L699.316 1868.54L1092.68 1964.62L732.429 2340.29L1260.27 2123.48L1329.15 2465.64L1509.09 2153.81L1792 2442.03V2235.02L1722.68 2041.5L1792 2041.82V1633.77L1707.76 1641.14L1792 1361.91V1275.78Z" fill="#0075FF"/>
<path fill-rule="evenodd" clip-rule="evenodd" d="M0 286.683C130.45 619.005 481.289 857 893.637 857C1311.07 857 1665.47 613.099 1792 274.345V0H0V286.683Z" fill="#AADC80"/>
</svg>
