<svg width="1114" height="251" viewBox="0 0 1114 251" fill="none" xmlns="http://www.w3.org/2000/svg">
<path d="M1177.69 171.242C1177.61 172.124 1177.18 172.956 1176.53 173.535C1097.86 243.134 1022.47 243.903 971.478 231.19C961.078 228.595 947.768 222.698 935.19 216.335C916.643 206.949 898.902 196.05 882.004 183.93C819.791 139.315 649.783 39.982 485.139 144.582C294.771 265.523 166.239 223.303 147.29 215.957C145.842 215.39 144.96 213.942 145.099 212.404L153.258 124.234C153.472 121.953 155.776 120.505 157.917 121.298C182.155 130.156 308.811 166.883 493.966 49.2425C658.609 -55.3575 828.617 43.9885 890.831 88.5903C907.728 100.711 925.469 111.609 944.016 120.996C956.595 127.359 969.904 133.255 980.304 135.851C1030.12 148.261 1103.2 147.82 1179.88 82.9332C1182.26 80.9173 1185.88 82.782 1185.59 85.894L1177.7 171.255L1177.69 171.242Z" fill="white" stroke="black" stroke-width="5.48" stroke-miterlimit="10"/>
<path d="M158.244 119.105C158.861 113.637 154.933 108.723 149.481 108.118L26.7406 94.2591C21.276 93.6418 16.3654 97.5728 15.761 103.028L0.0470821 242.44C-0.406205 246.447 2.46461 250.038 6.45605 250.491C36.1086 253.843 63.7842 240.349 79.9514 217.632L136.398 224.007C141.863 224.625 146.773 220.694 147.378 215.238L158.219 119.105H158.244Z" fill="black"/>
</svg>
