<svg width="914" height="251" viewBox="0 0 914 251" fill="none" xmlns="http://www.w3.org/2000/svg">
<path d="M776.686 171.242C776.61 172.124 776.182 172.956 775.527 173.535C696.857 243.134 621.473 243.903 570.478 231.19C560.078 228.595 546.768 222.698 534.19 216.335C515.643 206.949 497.902 196.05 481.004 183.93C418.791 139.315 248.783 39.982 84.1392 144.582C-106.229 265.523 -234.761 223.303 -253.71 215.957C-255.158 215.39 -256.04 213.942 -255.901 212.404L-247.742 124.234C-247.528 121.953 -245.224 120.505 -243.083 121.298C-218.845 130.156 -92.1893 166.883 92.9657 49.2425C257.609 -55.3575 427.617 43.9885 489.831 88.5903C506.728 100.711 524.469 111.609 543.016 120.996C555.595 127.359 568.904 133.255 579.304 135.851C629.116 148.261 702.195 147.82 778.876 82.9332C781.256 80.9173 784.882 82.782 784.593 85.894L776.698 171.255L776.686 171.242Z" fill="white" stroke="black" stroke-width="5.48" stroke-miterlimit="10"/>
<path d="M765.24 180.1C765.026 185.606 769.307 190.205 774.772 190.419L898.192 195.27C903.694 195.484 908.29 191.2 908.504 185.732L913.994 45.5515C914.158 41.5323 911.035 38.1557 907.006 37.9919C877.177 36.8201 850.572 52.3048 836.104 76.1428L779.343 73.9127C773.84 73.6985 769.245 77.9823 769.03 83.4504L765.24 180.113H765.215L765.24 180.1Z" fill="black"/>
</svg>
