<svg width="51" height="83" viewBox="0 0 51 83" fill="none" xmlns="http://www.w3.org/2000/svg">
<rect x="0.537109" y="2" width="50.4286" height="79.7097" fill="white"/>
<path d="M47.0051 81.6842C46.0251 81.7024 45.1904 80.9868 45.0898 80.0386C44.2998 72.7768 40.8119 69.4419 31.075 69.0604C21.0922 68.6717 11.4372 73.2636 5.25524 81.1284C4.96831 81.4917 4.53232 81.7097 4.05908 81.7097C3.20947 81.7097 2.49775 81.0957 2.39341 80.2747C1.63696 74.4769 2.24063 63.3207 12.2533 47.6563C12.2645 47.6382 17.459 38.9741 12.924 31.0583C12.924 31.0583 8.52323 24.6974 8.76917 18.2348C8.76917 9.26914 16.2256 2 25.4222 2H25.2694C34.466 2 41.9224 9.26914 41.9224 18.2348C42.1683 24.6938 37.7675 31.0583 37.7675 31.0583C33.2326 38.9704 38.4234 47.6345 38.4383 47.6563C48.6484 63.6259 49.0732 74.9128 48.2497 80.6089C48.1603 81.2156 47.6349 81.6661 47.0051 81.677V81.6842Z" fill="#83E958" stroke="black" stroke-width="2.15" stroke-miterlimit="10"/>
</svg>
