<svg width="51" height="83" viewBox="0 0 51 83" fill="none" xmlns="http://www.w3.org/2000/svg">
<rect x="0.261719" y="2" width="50.4286" height="79.7097" fill="white"/>
<path d="M46.7297 81.6842C45.7497 81.7024 44.915 80.9868 44.8144 80.0386C44.0244 72.7768 40.5366 69.4419 30.7996 69.0604C20.8168 68.6717 11.1618 73.2636 4.97985 81.1284C4.69292 81.4917 4.25693 81.7097 3.78369 81.7097C2.93408 81.7097 2.22236 81.0957 2.11802 80.2747C1.36157 74.4769 1.96524 63.3207 11.9779 47.6563C11.9891 47.6382 17.1836 38.9741 12.6486 31.0583C12.6486 31.0583 8.24784 24.6974 8.49378 18.2348C8.49378 9.26914 15.9502 2 25.1468 2H24.994C34.1906 2 41.647 9.26914 41.647 18.2348C41.8929 24.6938 37.4921 31.0583 37.4921 31.0583C32.9572 38.9704 38.148 47.6345 38.1629 47.6563C48.373 63.6259 48.7979 74.9128 47.9743 80.6089C47.8849 81.2156 47.3595 81.6661 46.7297 81.677V81.6842Z" fill="#0D7226" stroke="black" stroke-width="2.15" stroke-miterlimit="10"/>
</svg>
