<svg width="52" height="83" viewBox="0 0 52 83" fill="none" xmlns="http://www.w3.org/2000/svg">
<rect x="0.0976562" y="2.45801" width="50.4286" height="79.7097" fill="white"/>
<path d="M49.0051 81.3288C48.0251 81.3469 47.1904 80.6313 47.0898 79.6832C46.2998 72.4213 42.8119 69.0864 33.075 68.705C23.0922 68.3163 13.4372 72.9081 7.25524 80.773C6.96831 81.1363 6.53232 81.3542 6.05908 81.3542C5.20947 81.3542 4.49775 80.7402 4.39341 79.9193C3.63696 74.1214 4.24063 62.9653 14.2533 47.3009C14.2645 47.2827 19.459 38.6186 14.924 30.7028C14.924 30.7028 10.5232 24.3419 10.7692 17.8793C10.7692 8.91367 18.2256 1.64453 27.4222 1.64453H27.2694C36.466 1.64453 43.9224 8.91367 43.9224 17.8793C44.1683 24.3383 39.7675 30.7028 39.7675 30.7028C35.2326 38.615 40.4234 47.2791 40.4383 47.3009C50.6484 63.2704 51.0732 74.5573 50.2497 80.2535C50.1603 80.8601 49.6349 81.3106 49.0051 81.3215V81.3288Z" fill="#D2202A" stroke="black" stroke-width="2.15" stroke-miterlimit="10"/>
</svg>
