<svg width="51" height="83" viewBox="0 0 51 83" fill="none" xmlns="http://www.w3.org/2000/svg">
<rect x="0.357422" y="2.45801" width="50.4286" height="79.7097" fill="white"/>
<path d="M47.6379 81.3288C46.6579 81.3469 45.8232 80.6313 45.7226 79.6832C44.9326 72.4213 41.4448 69.0864 31.7078 68.705C21.725 68.3163 12.07 72.9081 5.88805 80.773C5.60112 81.1363 5.16513 81.3542 4.69189 81.3542C3.84228 81.3542 3.13056 80.7402 3.02622 79.9193C2.26977 74.1214 2.87344 62.9653 12.8861 47.3009C12.8973 47.2827 18.0918 38.6186 13.5568 30.7028C13.5568 30.7028 9.15605 24.3419 9.40199 17.8793C9.40199 8.91367 16.8584 1.64453 26.055 1.64453H25.9022C35.0988 1.64453 42.5552 8.91367 42.5552 17.8793C42.8011 24.3383 38.4003 30.7028 38.4003 30.7028C33.8654 38.615 39.0562 47.2791 39.0711 47.3009C49.2812 63.2704 49.7061 74.5573 48.8825 80.2535C48.7931 80.8601 48.2677 81.3106 47.6379 81.3215V81.3288Z" fill="#2276E7" stroke="black" stroke-width="2.15" stroke-miterlimit="10"/>
</svg>
