<svg width="51" height="83" viewBox="0 0 51 83" fill="none" xmlns="http://www.w3.org/2000/svg">
<rect y="1.29004" width="50.4286" height="79.7097" fill="white"/>
<path d="M48.095 80.9743C47.1149 80.9924 46.2802 80.2768 46.1796 79.3287C45.3896 72.0668 41.9018 68.7319 32.1649 68.3505C22.182 67.9618 12.5271 72.5536 6.34508 80.4185C6.05816 80.7818 5.62217 80.9997 5.14892 80.9997C4.29932 80.9997 3.58759 80.3858 3.48325 79.5648C2.72681 73.7669 3.33048 62.6108 13.3431 46.9464C13.3543 46.9282 18.5488 38.2641 14.0139 30.3484C14.0139 30.3484 9.61308 23.9874 9.85902 17.5248C9.85902 8.55918 17.3154 1.29004 26.512 1.29004H26.3592C35.5558 1.29004 43.0122 8.55918 43.0122 17.5248C43.2582 23.9838 38.8574 30.3484 38.8574 30.3484C34.3224 38.2605 39.5132 46.9246 39.5281 46.9464C49.7383 62.9159 50.1631 74.2028 49.3396 79.899C49.2501 80.5057 48.7247 80.9561 48.095 80.967V80.9743Z" fill="#EB6933" stroke="black" stroke-width="2.15" stroke-miterlimit="10"/>
</svg>
