<svg width="51" height="83" viewBox="0 0 51 83" fill="none" xmlns="http://www.w3.org/2000/svg">
<rect x="0.447266" y="2.45801" width="50.4286" height="79.7097" fill="white"/>
<path d="M47.7278 81.3288C46.7477 81.3469 45.9131 80.6313 45.8124 79.6832C45.0225 72.4213 41.5346 69.0864 31.7977 68.705C21.8148 68.3163 12.1599 72.9081 5.9779 80.773C5.69097 81.1363 5.25498 81.3542 4.78173 81.3542C3.93213 81.3542 3.2204 80.7402 3.11607 79.9193C2.35962 74.1214 2.96329 62.9653 12.976 47.3009C12.9871 47.2827 18.1816 38.6186 13.6467 30.7028C13.6467 30.7028 9.24589 24.3419 9.49183 17.8793C9.49183 8.91367 16.9482 1.64453 26.1448 1.64453H25.9921C35.1887 1.64453 42.6451 8.91367 42.6451 17.8793C42.891 24.3383 38.4902 30.7028 38.4902 30.7028C33.9552 38.615 39.146 47.2791 39.1609 47.3009C49.3711 63.2704 49.7959 74.5573 48.9724 80.2535C48.8829 80.8601 48.3575 81.3106 47.7278 81.3215V81.3288Z" fill="#51ADFF" stroke="black" stroke-width="2.15" stroke-miterlimit="10"/>
</svg>
