<svg width="52" height="83" viewBox="0 0 52 83" fill="none" xmlns="http://www.w3.org/2000/svg">
<rect x="0.626953" y="2" width="50.4286" height="79.7097" fill="white"/>
<path d="M47.095 81.6842C46.1149 81.7024 45.2802 80.9868 45.1796 80.0386C44.3896 72.7768 40.9018 69.4419 31.1649 69.0604C21.182 68.6717 11.5271 73.2636 5.34508 81.1284C5.05816 81.4917 4.62217 81.7097 4.14892 81.7097C3.29932 81.7097 2.58759 81.0957 2.48325 80.2747C1.72681 74.4769 2.33048 63.3207 12.3431 47.6563C12.3543 47.6382 17.5488 38.9741 13.0139 31.0583C13.0139 31.0583 8.61308 24.6974 8.85902 18.2348C8.85902 9.26914 16.3154 2 25.512 2H25.3592C34.5558 2 42.0122 9.26914 42.0122 18.2348C42.2582 24.6938 37.8574 31.0583 37.8574 31.0583C33.3224 38.9704 38.5132 47.6345 38.5281 47.6563C48.7383 63.6259 49.1631 74.9128 48.3396 80.6089C48.2501 81.2156 47.7247 81.6661 47.095 81.677V81.6842Z" fill="#602763" stroke="black" stroke-width="2.15" stroke-miterlimit="10"/>
</svg>
