<svg width="51" height="83" viewBox="0 0 51 83" fill="none" xmlns="http://www.w3.org/2000/svg">
<rect x="0.357422" y="1.29004" width="50.4286" height="79.7097" fill="white"/>
<path d="M47.6379 80.9743C46.6579 80.9924 45.8232 80.2768 45.7226 79.3287C44.9326 72.0668 41.4448 68.7319 31.7078 68.3505C21.725 67.9618 12.07 72.5536 5.88805 80.4185C5.60112 80.7818 5.16513 80.9997 4.69189 80.9997C3.84228 80.9997 3.13056 80.3858 3.02622 79.5648C2.26977 73.7669 2.87344 62.6108 12.8861 46.9464C12.8973 46.9282 18.0918 38.2641 13.5568 30.3484C13.5568 30.3484 9.15605 23.9874 9.40199 17.5248C9.40199 8.55918 16.8584 1.29004 26.055 1.29004H25.9022C35.0988 1.29004 42.5552 8.55918 42.5552 17.5248C42.8011 23.9838 38.4003 30.3484 38.4003 30.3484C33.8654 38.2605 39.0562 46.9246 39.0711 46.9464C49.2812 62.9159 49.7061 74.2028 48.8825 79.899C48.7931 80.5057 48.2677 80.9561 47.6379 80.967V80.9743Z" fill="#A2A1A5" stroke="black" stroke-width="2.15" stroke-miterlimit="10"/>
</svg>
