<svg width="51" height="83" viewBox="0 0 51 83" fill="none" xmlns="http://www.w3.org/2000/svg">
<rect x="0.537109" y="1.29004" width="50.4286" height="79.7097" fill="white"/>
<path d="M47.0051 80.9743C46.0251 80.9924 45.1904 80.2768 45.0898 79.3287C44.2998 72.0668 40.8119 68.7319 31.075 68.3505C21.0922 67.9618 11.4372 72.5536 5.25524 80.4185C4.96831 80.7818 4.53232 80.9997 4.05908 80.9997C3.20947 80.9997 2.49775 80.3858 2.39341 79.5648C1.63696 73.7669 2.24063 62.6108 12.2533 46.9464C12.2645 46.9282 17.459 38.2641 12.924 30.3484C12.924 30.3484 8.52323 23.9874 8.76917 17.5248C8.76917 8.55918 16.2256 1.29004 25.4222 1.29004H25.2694C34.466 1.29004 41.9224 8.55918 41.9224 17.5248C42.1683 23.9838 37.7675 30.3484 37.7675 30.3484C33.2326 38.2605 38.4234 46.9246 38.4383 46.9464C48.6484 62.9159 49.0732 74.2028 48.2497 79.899C48.1603 80.5057 47.6349 80.9561 47.0051 80.967V80.9743Z" fill="#5E3032" stroke="black" stroke-width="2.15" stroke-miterlimit="10"/>
</svg>
