<svg width="51" height="83" viewBox="0 0 51 83" fill="none" xmlns="http://www.w3.org/2000/svg">
<rect x="0.357422" y="2" width="50.4286" height="79.7097" fill="white"/>
<path d="M47.6379 81.6842C46.6579 81.7024 45.8232 80.9868 45.7226 80.0386C44.9326 72.7768 41.4448 69.4419 31.7078 69.0604C21.725 68.6717 12.07 73.2636 5.88805 81.1284C5.60112 81.4917 5.16513 81.7097 4.69189 81.7097C3.84228 81.7097 3.13056 81.0957 3.02622 80.2747C2.26977 74.4769 2.87344 63.3207 12.8861 47.6563C12.8973 47.6382 18.0918 38.9741 13.5568 31.0583C13.5568 31.0583 9.15605 24.6974 9.40199 18.2348C9.40199 9.26914 16.8584 2 26.055 2H25.9022C35.0988 2 42.5552 9.26914 42.5552 18.2348C42.8011 24.6938 38.4003 31.0583 38.4003 31.0583C33.8654 38.9704 39.0562 47.6345 39.0711 47.6563C49.2812 63.6259 49.7061 74.9128 48.8825 80.6089C48.7931 81.2156 48.2677 81.6661 47.6379 81.677V81.6842Z" fill="#D4CB1F" stroke="black" stroke-width="2.15" stroke-miterlimit="10"/>
</svg>
