<svg width="52" height="83" viewBox="0 0 52 83" fill="none" xmlns="http://www.w3.org/2000/svg">
<rect x="0.632812" y="1.29004" width="50.4286" height="79.7097" fill="white"/>
<path d="M48.7278 80.9743C47.7477 80.9924 46.9131 80.2768 46.8124 79.3287C46.0225 72.0668 42.5346 68.7319 32.7977 68.3505C22.8148 67.9618 13.1599 72.5536 6.9779 80.4185C6.69097 80.7818 6.25498 80.9997 5.78173 80.9997C4.93213 80.9997 4.2204 80.3858 4.11607 79.5648C3.35962 73.7669 3.96329 62.6108 13.976 46.9464C13.9871 46.9282 19.1816 38.2641 14.6467 30.3484C14.6467 30.3484 10.2459 23.9874 10.4918 17.5248C10.4918 8.55918 17.9482 1.29004 27.1448 1.29004H26.9921C36.1887 1.29004 43.6451 8.55918 43.6451 17.5248C43.891 23.9838 39.4902 30.3484 39.4902 30.3484C34.9552 38.2605 40.146 46.9246 40.1609 46.9464C50.3711 62.9159 50.7959 74.2028 49.9724 79.899C49.8829 80.5057 49.3575 80.9561 48.7278 80.967V80.9743Z" fill="#251F2A" stroke="black" stroke-width="2.15" stroke-miterlimit="10"/>
</svg>
