<svg width="51" height="83" viewBox="0 0 51 83" fill="none" xmlns="http://www.w3.org/2000/svg">
<rect y="2.45801" width="50.4286" height="79.7097" fill="white"/>
<path d="M48.095 81.3288C47.1149 81.3469 46.2802 80.6313 46.1796 79.6832C45.3896 72.4213 41.9018 69.0864 32.1649 68.705C22.182 68.3163 12.5271 72.9081 6.34508 80.773C6.05816 81.1363 5.62217 81.3542 5.14892 81.3542C4.29932 81.3542 3.58759 80.7402 3.48325 79.9193C2.72681 74.1214 3.33048 62.9653 13.3431 47.3009C13.3543 47.2827 18.5488 38.6186 14.0139 30.7028C14.0139 30.7028 9.61308 24.3419 9.85902 17.8793C9.85902 8.91367 17.3154 1.64453 26.512 1.64453H26.3592C35.5558 1.64453 43.0122 8.91367 43.0122 17.8793C43.2582 24.3383 38.8574 30.7028 38.8574 30.7028C34.3224 38.615 39.5132 47.2791 39.5281 47.3009C49.7383 63.2704 50.1631 74.5573 49.3396 80.2535C49.2501 80.8601 48.7247 81.3106 48.095 81.3215V81.3288Z" fill="#E9B113" stroke="black" stroke-width="2.15" stroke-miterlimit="10"/>
</svg>
